<?xml version="1.0" encoding="UTF-8" standalone="no"?>
<!DOCTYPE svg PUBLIC "-//W3C//DTD SVG 1.0//EN" "http://www.w3.org/TR/2001/PR-SVG-20010719/DTD/svg10.dtd">
<svg width="20cm" height="9cm" viewBox="-119 -174 383 171" xmlns="http://www.w3.org/2000/svg" xmlns:xlink="http://www.w3.org/1999/xlink">
  <g>
    <ellipse style="fill: none; fill-opacity:0; stroke-width: 2; stroke: #000000" cx="7.6976" cy="-26.5982" rx="22.5808" ry="22.417"/>
    <text font-size="12.8" style="fill: #000000;text-anchor:middle;font-family:sans-serif;font-style:normal;font-weight:normal" x="7.6976" y="-22.6982">
      <tspan x="7.6976" y="-22.6982">10</tspan>
    </text>
  </g>
  <g>
    <ellipse style="fill: none; fill-opacity:0; stroke-width: 2; stroke: #000000" cx="-51.7074" cy="-108.844" rx="22.5808" ry="22.417"/>
    <text font-size="12.8" style="fill: #000000;text-anchor:middle;font-family:sans-serif;font-style:normal;font-weight:normal" x="-51.7074" y="-104.944">
      <tspan x="-51.7074" y="-104.944">6</tspan>
    </text>
  </g>
  <g>
    <ellipse style="fill: none; fill-opacity:0; stroke-width: 2; stroke: #000000" cx="-94.9732" cy="-26.9082" rx="22.5808" ry="22.417"/>
    <text font-size="12.8" style="fill: #000000;text-anchor:middle;font-family:sans-serif;font-style:normal;font-weight:normal" x="-94.9732" y="-23.0082">
      <tspan x="-94.9732" y="-23.0082">25</tspan>
    </text>
  </g>
  <g>
    <ellipse style="fill: none; fill-opacity:0; stroke-width: 2; stroke: #000000" cx="34.6057" cy="-126.153" rx="22.5808" ry="22.417"/>
    <text font-size="12.8" style="fill: #000000;text-anchor:middle;font-family:sans-serif;font-style:normal;font-weight:normal" x="34.6057" y="-122.253">
      <tspan x="34.6057" y="-122.253">42</tspan>
    </text>
  </g>
  <g>
    <line style="fill: none; fill-opacity:0; stroke-width: 2; stroke: #000000" x1="-15.8771" y1="-26.6694" x2="-61.6625" y2="-26.8076"/>
    <polygon style="fill: #000000" points="-69.1625,-26.8302 -59.1474,-31.8 -61.6625,-26.8076 -59.1776,-21.8001 "/>
    <polygon style="fill: none; fill-opacity:0; stroke-width: 2; stroke: #000000" points="-69.1625,-26.8302 -59.1474,-31.8 -61.6625,-26.8076 -59.1776,-21.8001 "/>
  </g>
  <g>
    <line style="fill: none; fill-opacity:0; stroke-width: 2; stroke: #000000" x1="-29.1267" y1="-108.844" x2="2.47731" y2="-117.427"/>
    <polygon style="fill: #000000" points="9.71513,-119.393 1.37516,-111.947 2.47731,-117.427 -1.24576,-121.597 "/>
    <polygon style="fill: none; fill-opacity:0; stroke-width: 2; stroke: #000000" points="9.71513,-119.393 1.37516,-111.947 2.47731,-117.427 -1.24576,-121.597 "/>
  </g>
  <g>
    <line style="fill: none; fill-opacity:0; stroke-width: 2; stroke: #000000" x1="-37.9874" y1="-89.8489" x2="-11.7231" y2="-53.4861"/>
    <polygon style="fill: #000000" points="-7.33168,-47.4061 -17.2402,-52.5851 -11.7231,-53.4861 -9.13365,-58.4403 "/>
    <polygon style="fill: none; fill-opacity:0; stroke-width: 2; stroke: #000000" points="-7.33168,-47.4061 -17.2402,-52.5851 -11.7231,-53.4861 -9.13365,-58.4403 "/>
  </g>
  <text font-size="12.8" style="fill: #000000;text-anchor:start;font-family:sans-serif;font-style:normal;font-weight:normal" x="-16.911" y="-118.583">
    <tspan x="-16.911" y="-118.583">1</tspan>
  </text>
  <text font-size="12.8" style="fill: #000000;text-anchor:start;font-family:sans-serif;font-style:normal;font-weight:normal" x="-104.353" y="-74.8166">
    <tspan x="-104.353" y="-74.8166">4</tspan>
  </text>
  <text font-size="12.8" style="fill: #000000;text-anchor:start;font-family:sans-serif;font-style:normal;font-weight:normal" x="-21.0748" y="-71.7322">
    <tspan x="-21.0748" y="-71.7322">2</tspan>
  </text>
  <text font-size="12.8" style="fill: #000000;text-anchor:start;font-family:sans-serif;font-style:normal;font-weight:normal" x="-45.3644" y="-12.2011">
    <tspan x="-45.3644" y="-12.2011">3</tspan>
  </text>
  <g>
    <path style="fill: none; fill-opacity:0; stroke-width: 2; stroke: #000000" d="M -72.8429,-98.4813 A 63.659,63.659 0 0 0 -97.2193,-59.6536"/>
    <polygon style="fill: #000000" points="-98.2495,-52.3012 -102.841,-62.4954 -97.9459,-59.7951 -92.8488,-62.0906 "/>
    <polygon style="fill: none; fill-opacity:0; stroke-width: 2; stroke: #000000" points="-98.2495,-52.3012 -102.841,-62.4954 -97.9459,-59.7951 -92.8488,-62.0906 "/>
  </g>
  <g>
    <path style="fill: none; fill-opacity:0; stroke-width: 2; stroke: #000000" d="M -77.239,-42.35 A 73.2272,73.2272 0 0 0 -61.1199,-78.4921"/>
    <polygon style="fill: #000000" points="-60.3794,-85.8977 -55.5171,-75.83 -60.4823,-78.3984 -65.5161,-75.9672 "/>
    <polygon style="fill: none; fill-opacity:0; stroke-width: 2; stroke: #000000" points="-60.3794,-85.8977 -55.5171,-75.83 -60.4823,-78.3984 -65.5161,-75.9672 "/>
  </g>
  <text font-size="12.8" style="fill: #000000;text-anchor:start;font-family:sans-serif;font-style:normal;font-weight:normal" x="-77.3378" y="-60.003">
    <tspan x="-77.3378" y="-60.003">5</tspan>
  </text>
  <g>
    <ellipse style="fill: none; fill-opacity:0; stroke-width: 2; stroke: #000000" cx="182.071" cy="-71.9111" rx="81.2217" ry="55.3221"/>
    <text font-size="12.8" style="fill: #000000;text-anchor:middle;font-family:sans-serif;font-style:normal;font-weight:normal" x="182.071" y="-68.0111">
      <tspan x="182.071" y="-68.0111"></tspan>
    </text>
  </g>
  <g>
    <polygon style="fill: #000000" points="146.653,-93.554 155.907,-82.7675 137.4,-82.7675 "/>
    <polygon style="fill: none; fill-opacity:0; stroke-width: 2; stroke: #000000" points="146.653,-93.554 155.907,-82.7675 137.4,-82.7675 "/>
  </g>
  <g>
    <polygon style="fill: #000000" points="146.614,-99.018 153.851,-89.8285 139.377,-89.8285 "/>
    <polygon style="fill: none; fill-opacity:0; stroke-width: 2; stroke: #000000" points="146.614,-99.018 153.851,-89.8285 139.377,-89.8285 "/>
  </g>
  <line style="fill: none; fill-opacity:0; stroke-width: 4; stroke: #000000" x1="146.653" y1="-82.7675" x2="146.657" y2="-75.3282"/>
  <text font-size="12.8" style="fill: #000000;text-anchor:start;font-family:sans-serif;font-style:normal;font-weight:normal" x="153.338" y="-50.6754">
    <tspan x="153.338" y="-50.6754">25</tspan>
  </text>
  <text font-size="12.8" style="fill: #000000;text-anchor:start;font-family:sans-serif;font-style:normal;font-weight:normal" x="130.327" y="-90.6918">
    <tspan x="130.327" y="-90.6918">6</tspan>
  </text>
  <text font-size="12.8" style="fill: #000000;text-anchor:start;font-family:sans-serif;font-style:normal;font-weight:normal" x="172.365" y="-102.405">
    <tspan x="172.365" y="-102.405">42</tspan>
  </text>
  <text font-size="12.8" style="fill: #000000;text-anchor:start;font-family:sans-serif;font-style:normal;font-weight:normal" x="201.5" y="-59.5944">
    <tspan x="201.5" y="-59.5944">10</tspan>
  </text>
  <text font-size="12.8" style="fill: #000000;text-anchor:start;font-family:sans-serif;font-style:normal;font-weight:normal" x="129.175" y="-140.46">
    <tspan x="129.175" y="-140.46">Online Tree Repo</tspan>
  </text>
  <text font-size="12.8" style="fill: #000000;text-anchor:start;font-family:sans-serif;font-style:normal;font-weight:normal" x="-98.6774" y="-161.96">
    <tspan x="-98.6774" y="-161.96">Tree Transition Graph</tspan>
  </text>
  <g>
    <polygon style="fill: #000000" points="195.322,-103.514 204.575,-92.7277 186.068,-92.7277 "/>
    <polygon style="fill: none; fill-opacity:0; stroke-width: 2; stroke: #000000" points="195.322,-103.514 204.575,-92.7277 186.068,-92.7277 "/>
  </g>
  <g>
    <polygon style="fill: #000000" points="195.282,-108.569 202.52,-99.3799 188.045,-99.3799 "/>
    <polygon style="fill: none; fill-opacity:0; stroke-width: 2; stroke: #000000" points="195.282,-108.569 202.52,-99.3799 188.045,-99.3799 "/>
  </g>
  <line style="fill: none; fill-opacity:0; stroke-width: 4; stroke: #000000" x1="195.322" y1="-92.7277" x2="195.325" y2="-84.8796"/>
  <g>
    <polygon style="fill: #000000" points="175.597,-51.6206 184.851,-40.8341 166.343,-40.8341 "/>
    <polygon style="fill: none; fill-opacity:0; stroke-width: 2; stroke: #000000" points="175.597,-51.6206 184.851,-40.8341 166.343,-40.8341 "/>
  </g>
  <g>
    <polygon style="fill: #000000" points="175.558,-56.6758 182.795,-47.4863 168.321,-47.4863 "/>
    <polygon style="fill: none; fill-opacity:0; stroke-width: 2; stroke: #000000" points="175.558,-56.6758 182.795,-47.4863 168.321,-47.4863 "/>
  </g>
  <line style="fill: none; fill-opacity:0; stroke-width: 4; stroke: #000000" x1="175.597" y1="-40.8341" x2="175.601" y2="-32.986"/>
  <g>
    <polygon style="fill: #000000" points="223.756,-60.658 233.009,-49.8715 214.502,-49.8715 "/>
    <polygon style="fill: none; fill-opacity:0; stroke-width: 2; stroke: #000000" points="223.756,-60.658 233.009,-49.8715 214.502,-49.8715 "/>
  </g>
  <g>
    <polygon style="fill: #000000" points="223.717,-65.7132 230.955,-56.5237 216.48,-56.5237 "/>
    <polygon style="fill: none; fill-opacity:0; stroke-width: 2; stroke: #000000" points="223.717,-65.7132 230.955,-56.5237 216.48,-56.5237 "/>
  </g>
  <line style="fill: none; fill-opacity:0; stroke-width: 4; stroke: #000000" x1="223.756" y1="-49.8715" x2="223.76" y2="-42.0234"/>
</svg>
